<svg width="73" height="72" viewBox="0 0 73 72" fill="none" xmlns="http://www.w3.org/2000/svg">
<rect x="0.5" width="72" height="72" rx="36" fill="white"/>
<g clip-path="url(#clip0_1579_467)">
<path fill-rule="evenodd" clip-rule="evenodd" d="M47.9583 45.3333C47.9583 45.3333 49.5 45.3333 49.5 43.7777C49.5 42.2222 47.9583 37.5555 41.7916 37.5555C35.625 37.5555 34.0833 42.2222 34.0833 43.7777C34.0833 45.3333 35.625 45.3333 35.625 45.3333H47.9583ZM35.6589 43.7777H47.9244C47.9316 43.7769 47.9388 43.7759 47.946 43.7746L47.9583 43.7715C47.9552 43.3608 47.7009 42.1693 46.7866 41.096C45.9356 40.0895 44.4402 39.1111 41.7916 39.1111C39.1446 39.1111 37.6492 40.0911 36.7966 41.096C35.8824 42.1693 35.6265 43.3624 35.625 43.7715C35.6363 43.7737 35.6476 43.7758 35.6589 43.7777ZM41.7916 34.4444C42.6094 34.4444 43.3937 34.1166 43.9719 33.5332C44.5501 32.9497 44.875 32.1584 44.875 31.3333C44.875 30.5082 44.5501 29.7169 43.9719 29.1334C43.3937 28.55 42.6094 28.2222 41.7916 28.2222C40.9739 28.2222 40.1896 28.55 39.6114 29.1334C39.0332 29.7169 38.7083 30.5082 38.7083 31.3333C38.7083 32.1584 39.0332 32.9497 39.6114 33.5332C40.1896 34.1166 40.9739 34.4444 41.7916 34.4444ZM46.4166 31.3333C46.4166 31.9461 46.297 32.553 46.0646 33.1191C45.8322 33.6853 45.4915 34.1998 45.062 34.6331C44.6325 35.0665 44.1227 35.4102 43.5616 35.6447C43.0004 35.8793 42.399 36 41.7916 36C41.1843 36 40.5829 35.8793 40.0217 35.6447C39.4606 35.4102 38.9507 35.0665 38.5213 34.6331C38.0918 34.1998 37.7511 33.6853 37.5187 33.1191C37.2863 32.553 37.1666 31.9461 37.1666 31.3333C37.1666 30.0956 37.6539 28.9086 38.5213 28.0335C39.3886 27.1583 40.565 26.6666 41.7916 26.6666C43.0183 26.6666 44.1947 27.1583 45.062 28.0335C45.9294 28.9086 46.4166 30.0956 46.4166 31.3333ZM35.5263 37.9911C34.9096 37.7951 34.2739 37.6663 33.6301 37.6068C33.2683 37.5721 32.9051 37.555 32.5416 37.5555C26.375 37.5555 24.8333 42.2222 24.8333 43.7777C24.8333 44.8153 25.3467 45.3333 26.375 45.3333H32.8746C32.6461 44.8477 32.5321 44.3152 32.5416 43.7777C32.5416 42.2066 33.1229 40.6013 34.2221 39.2604C34.5967 38.8031 35.033 38.3753 35.5263 37.9911ZM32.4183 39.1111C29.8468 39.1422 28.3869 40.1066 27.5466 41.096C26.6263 42.1755 26.375 43.3717 26.375 43.7777H31C31 42.1522 31.4979 40.5328 32.4183 39.1111ZM27.1458 32.1111C27.1458 30.8734 27.6331 29.6864 28.5004 28.8112C29.3678 27.9361 30.5442 27.4444 31.7708 27.4444C32.9974 27.4444 34.1738 27.9361 35.0412 28.8112C35.9085 29.6864 36.3958 30.8734 36.3958 32.1111C36.3958 33.3487 35.9085 34.5357 35.0412 35.4109C34.1738 36.2861 32.9974 36.7777 31.7708 36.7777C30.5442 36.7777 29.3678 36.2861 28.5004 35.4109C27.6331 34.5357 27.1458 33.3487 27.1458 32.1111ZM31.7708 29C30.9531 29 30.1688 29.3277 29.5906 29.9112C29.0123 30.4946 28.6875 31.286 28.6875 32.1111C28.6875 32.9362 29.0123 33.7275 29.5906 34.311C30.1688 34.8944 30.9531 35.2222 31.7708 35.2222C32.5886 35.2222 33.3728 34.8944 33.9511 34.311C34.5293 33.7275 34.8541 32.9362 34.8541 32.1111C34.8541 31.286 34.5293 30.4946 33.9511 29.9112C33.3728 29.3277 32.5886 29 31.7708 29Z" fill="#23A6F0"/>
</g>
<defs>
<clipPath id="clip0_1579_467">
<rect width="24" height="19.7647" fill="white" transform="translate(25 26)"/>
</clipPath>
</defs>
</svg>
